<?xml version="1.0" encoding="utf-8"?>
<!-- Generator: Adobe Illustrator 26.0.0, SVG Export Plug-In . SVG Version: 6.00 Build 0)  -->
<svg version="1.1" id="Layer_1" xmlns="http://www.w3.org/2000/svg" xmlns:xlink="http://www.w3.org/1999/xlink" x="0px" y="0px"
	 viewBox="0 0 357.06 189.67" style="enable-background:new 0 0 357.06 189.67;" xml:space="preserve">
<style type="text/css">
	.st0{fill:#EDEB6D;}
	.st1{fill:#231F20;}
	.st2{fill:#9B2527;}
</style>
<g>
	<g>
		<path class="st0" d="M94.83,187.17c-50.91,0-92.33-41.42-92.33-92.33S43.92,2.5,94.83,2.5h167.39c50.91,0,92.33,41.42,92.33,92.33
			s-41.42,92.33-92.33,92.33H94.83z"/>
		<path class="st1" d="M262.22,5c49.61,0,89.83,40.22,89.83,89.83v0c0,49.61-40.22,89.83-89.83,89.83H94.83
			C45.22,184.67,5,144.45,5,94.83v0C5,45.22,45.22,5,94.83,5H262.22 M262.22,0H94.83C42.54,0,0,42.54,0,94.83
			c0,52.29,42.54,94.83,94.83,94.83h167.39c52.29,0,94.83-42.54,94.83-94.83C357.06,42.54,314.51,0,262.22,0L262.22,0z"/>
	</g>
	<g>
		<circle class="st2" cx="262.22" cy="94.83" r="65"/>
		<path class="st1" d="M262.22,32.34c34.52,0,62.49,27.98,62.49,62.5s-27.98,62.5-62.49,62.5c-34.52,0-62.5-27.98-62.5-62.5
			S227.71,32.34,262.22,32.34 M262.22,27.34c-37.22,0-67.5,30.28-67.5,67.5s30.28,67.5,67.5,67.5c37.22,0,67.49-30.28,67.49-67.5
			S299.44,27.34,262.22,27.34L262.22,27.34z"/>
	</g>
	<g>
		<circle class="st2" cx="94.83" cy="94.83" r="65"/>
		<path class="st1" d="M94.83,32.34c34.52,0,62.5,27.98,62.5,62.5s-27.98,62.5-62.5,62.5c-34.52,0-62.5-27.98-62.5-62.5
			S60.32,32.34,94.83,32.34 M94.83,27.34c-37.22,0-67.5,30.28-67.5,67.5s30.28,67.5,67.5,67.5s67.5-30.28,67.5-67.5
			S132.05,27.34,94.83,27.34L94.83,27.34z"/>
	</g>
</g>
</svg>
