<?xml version="1.0" encoding="utf-8"?>
<!-- Generator: Adobe Illustrator 26.0.0, SVG Export Plug-In . SVG Version: 6.00 Build 0)  -->
<svg version="1.1" id="Layer_1" xmlns="http://www.w3.org/2000/svg" xmlns:xlink="http://www.w3.org/1999/xlink" x="0px" y="0px"
	 viewBox="0 0 1920 516.1" style="enable-background:new 0 0 1920 516.1;" xml:space="preserve">
<style type="text/css">
	.st0{fill:#FFFFFF;}
	.st1{fill:#231F20;}
	.st2{fill:none;stroke:#FFFFFF;stroke-miterlimit:10;}
	.st3{fill:none;}
</style>
<path class="st0" d="M483.5,195.6l-7.4-11.5c-0.2-0.4-1.6-3.8,0.3-7.2c1.5-2.7,4.4-4.1,7-4c3.9,0,7.5,3,8,6.6c0.3,2.1-0.5,3.9-1,4.7
	C488.1,188,485.8,191.8,483.5,195.6z"/>
<ellipse transform="matrix(0.9944 -0.1054 0.1054 0.9944 -16.3575 51.9639)" class="st1" cx="483.4" cy="180.7" rx="3.5" ry="3.5"/>
<polygon class="st0" points="0,118.3 896.1,116.8 981.8,0 1920,0 1920,516.1 0,516.1 "/>
<polygon class="st0" points="1920,516.1 0,516.1 0,39.5 1920,39.5 "/>
<polygon class="st1" points="0,161.1 885.1,159.6 989.2,16.9 1920,16.9 1920,516.1 0,516.1 "/>
<g>
	<ellipse class="st0" cx="585.4" cy="698.5" rx="48.9" ry="49.5"/>
	<path class="st1" d="M607.2,670.3v12.4c-2.7,0-5.4,0-8.1-0.1c-0.2,0-2.4-0.2-3.8,1.5c-0.9,1-1,2.2-1.1,2.6c-0.1,4-0.2,8.1-0.3,12.1
		h12.4l-1.7,13.7l-11,0.1l0.3,34.6c-2.3,0.3-5,0.6-8,0.6c-3.2,0-6.1-0.2-8.7-0.6c0-11.5,0.1-23.1,0.1-34.6h-12.3v-13.8h12.3
		c0-1.7,0-4.2,0.1-7.2c0.3-6.3,0.4-9.5,1.5-12c0.6-1.5,2.7-5.8,7.4-8.3c3.2-1.7,6.2-1.8,11.3-1.8C601.7,669.5,605,669.9,607.2,670.3
		z"/>
</g>
<g>
	<ellipse class="st0" cx="298.9" cy="696.9" rx="48.6" ry="49.2"/>
	<path class="st1" d="M286,667h24.5c1.4-0.1,6.9-0.3,11.9,3.5c3.5,2.7,4.9,6.1,5.5,7.6c0.2,1.1,0.5,2.6,0.8,4.6
		c0.3,2.6,0.4,4.5,0.4,8.9c0,11.6-0.1,9.9-0.1,12.8c-0.1,5.7-0.2,6.3-0.3,7.6c-0.2,1.6-0.8,5.2-3.6,8.7c-2.1,2.6-4.6,4-6,4.6
		c-0.9,0.3-2.3,0.8-3.9,1.1c-2.4,0.5-4.2,0.5-7.5,0.5c-5,0-5.5-0.1-8.9-0.1c-4,0-4.3,0.1-8.1,0.1c-4-0.1-5.7-0.2-7.7-0.6
		c-1.9-0.4-3.4-0.9-4.5-1.3c-1.5-0.8-4.4-2.6-6.5-6.1c-1.3-2.1-1.9-4.1-2.1-5.5c-0.4-4.3-0.6-7.8-0.6-10.5c-0.1-2.5,0-5.5,0-11.5
		c0.1-5,0.1-7.5,0.2-8.4c0.5-3.1,1.3-8.4,5.6-12.1C279.4,667,284.6,667,286,667z"/>
	<path class="st0" d="M287.9,672.3h20.6c1.2-0.1,5.8-0.3,9.9,2.9c2.9,2.2,4.1,5,4.6,6.2c0.2,0.9,0.5,2.2,0.7,3.7
		c0.3,2.1,0.3,3.6,0.3,7.2c0,9.5,0,8.1-0.1,10.4c-0.1,4.7-0.2,5.2-0.3,6.2c-0.1,1.3-0.7,4.3-3,7.1c-1.8,2.1-3.8,3.2-5,3.8
		c-0.8,0.3-1.9,0.7-3.3,0.9c-2,0.4-3.5,0.4-6.3,0.4c-4.2,0-4.6-0.1-7.5-0.1c-3.3,0-3.6,0.1-6.8,0c-3.3,0-4.8-0.2-6.4-0.5
		c-1.6-0.3-2.9-0.8-3.7-1.1c-1.2-0.6-3.7-2.1-5.5-5c-1.1-1.7-1.5-3.3-1.8-4.5c-0.3-3.5-0.5-6.4-0.5-8.5c-0.1-2.1,0-4.5,0-9.3
		c0-4.1,0.1-6.2,0.2-6.9c0.4-2.5,1.1-6.9,4.7-9.9C282.4,672.3,286.8,672.3,287.9,672.3z"/>
	<ellipse class="st1" cx="299.2" cy="696.8" rx="15" ry="15.1"/>
	<ellipse class="st0" cx="298.9" cy="696.9" rx="9.6" ry="9.6"/>
	<ellipse class="st1" cx="315.1" cy="681" rx="3.4" ry="3.4"/>
</g>
<g>
	<ellipse class="st0" cx="731.2" cy="697" rx="48.6" ry="48.8"/>
	<path class="st1" d="M731.5,690.9c-3.5-0.2-9.9-0.9-16.6-4.8c-4.6-2.6-7.7-5.8-9.7-8.1c-0.7,1.1-1.8,3.1-1.9,5.8
		c-0.2,6.3,5,10.3,5.6,10.7c-0.7,0-1.5,0-2.4-0.1c-1.4-0.2-2.5-0.6-3.2-1c0,1.2,0.3,4.2,2.4,7.2c2.7,3.7,6.6,4.8,7.6,5
		c-0.5,0.2-1.2,0.5-2.1,0.6c-1.5,0.2-2.7,0-3.4-0.2c0.3,1.1,1.1,3.3,3.1,5.2c3.4,3.2,7.6,3.3,8.6,3.3c-1.6,1.3-4.3,3.1-8,4.4
		c-4.3,1.4-8.1,1.4-10.2,1.2c12.9,7.7,29,7.3,40.8-1.1c15.5-11,15.1-29.8,15-31.3c1-0.7,2.2-1.7,3.4-2.9c1.1-1.1,1.9-2.1,2.6-3.1
		c-2.2,0.4-4.3,0.8-6.5,1.1c1.1-1,2.4-2.2,3.6-4c0.5-0.8,1-1.5,1.4-2.3c-1.4,0.7-3.1,1.4-5.1,1.9c-1.1,0.3-2.1,0.5-3.1,0.7
		c-3.9-3.9-9.8-5-14.7-2.8C733.5,679,730.4,684.9,731.5,690.9z"/>
</g>
<g>
	<ellipse class="st0" cx="441.3" cy="697" rx="48.5" ry="49.2"/>
	<path class="st1" d="M463.8,718.9c-2.3,0.2-5.4,0.3-9,0.5c-7.4,0.3-12.8,0.3-18.1,0.2c-0.9,0-5.6,0-10.6-0.3
		c-0.7,0-1.4-0.1-2.8-0.2c-2.9-0.2-5.4-0.6-7-0.9c-0.9-0.2-2.4-0.7-3.7-2c-1.2-1.2-1.5-2.5-2.1-4.6c-0.3-1.2-0.7-2.9-0.9-5.1
		c-0.3-4.3-0.4-9-0.2-14c0.1-2.7,0.3-5.2,0.5-7.6c0.1-0.9,0.4-2.1,0.8-3.5c0.6-1.6,0.9-2.7,1.8-3.7c1.4-1.6,3.3-2,4.9-2.4
		c0.7-0.2,1.5-0.2,3-0.4c1.2-0.1,2.2-0.2,3.5-0.3c2.8-0.2,5-0.2,5.5-0.2c3.6-0.1,4.2,0,9.2-0.1c2.6,0,3.2,0,6.5-0.1
		c3.2,0,4.3,0,5.1,0c0.8,0,2.8,0,5.5,0.2c3.4,0.2,5.1,0.3,7.5,0.6c1.1,0.1,3.9,0.4,5.6,1.6c1.7,1.2,2.6,2.8,2.6,2.8l0,0
		c0.4,1.2,1,2.9,1.4,5c0.3,1.8,0.4,3.2,0.5,5.2c0.2,5.1,0.1,9.1,0.1,11.7c-0.2,5.4-0.4,6.7-0.5,7.6c-0.6,3-1.2,5.6-3.4,7.5
		C467.5,718.5,465,718.8,463.8,718.9z"/>
	<polygon class="st0" points="434.9,687.3 435,706.2 451.5,696.7 	"/>
</g>
<g>
	<polygon class="st0" points="-8.4,612.9 5.5,624.2 19.5,612.9 	"/>
	<polygon class="st0" points="-9.5,613.7 -9.4,631.2 0.5,621.7 	"/>
	<polygon class="st0" points="1.5,622.5 -8.5,632.1 19.6,632.1 9.6,622.5 5.5,625.7 	"/>
	<polygon class="st0" points="10.8,621.7 20.5,613.7 20.5,631.2 	"/>
</g>
<g>
	<path class="st0" d="M230.1,611.7l0.3,8.4l-1.4,3.3l4.8,9.2l3.6,1l6.6,5.1c-1.3,0.9-3.2,2-5.5,2c-6.8,0.1-11-8.7-12.2-11.2
		c-1.1-2.3-5.3-11-1.3-15.5C226.4,612.4,228.5,611.9,230.1,611.7z"/>
	<polygon class="st0" points="230.9,611.7 231.1,619.9 233.2,618.7 233.2,612.8 	"/>
	<polygon class="st0" points="238,633 240.3,632.1 245.2,635.8 244.8,638.3 	"/>
</g>
<text transform="matrix(0.9754 0 0 1 -231.0547 631.0166)" class="st0" style="font-family:'AgencyFB-Reg'; font-size:23.3216px;">Jalan 500 UITM Alor Gajah, </text>
<text transform="matrix(0.9754 0 0 1 -231.0547 659.0068)" class="st0" style="font-family:'AgencyFB-Reg'; font-size:23.3216px;">43800 Melaka, Malaysia.</text>
<text transform="matrix(0.9754 0 0 1 30.9341 629.6299)" class="st0" style="font-family:'AgencyFB-Reg'; font-size:23.3216px;">gameinc22@gmail.com</text>
<text transform="matrix(0.9754 0 0 1 252.9082 633.9795)" class="st0" style="font-family:'AgencyFB-Reg'; font-size:23.3216px;">03-88756494</text>
<path class="st2" d="M1613,604.4H996.6c-3.8,0-6.8-3-6.8-6.8v-22.3c0-3.8,3-6.8,6.8-6.8H1613c3.8,0,6.8,3,6.8,6.8v22.3
	C1619.8,601.4,1616.7,604.4,1613,604.4z"/>
<path class="st2" d="M1610.7,706.2H994.3c-3.8,0-6.8-3-6.8-6.8V677c0-3.8,3-6.8,6.8-6.8h616.3c3.8,0,6.8,3,6.8,6.8v22.3
	C1617.5,703.1,1614.4,706.2,1610.7,706.2z"/>
<path class="st2" d="M1610.7,896.4H994.3c-3.8,0-6.8-3-6.8-6.8V788.9c0-3.8,3-6.8,6.8-6.8h616.3c3.8,0,6.8,3,6.8,6.8v100.7
	C1617.5,893.3,1614.4,896.4,1610.7,896.4z"/>
<rect x="1288.4" y="527.5" class="st3" width="331.4" height="35.4"/>
<text transform="matrix(1 0 0 1 1515.6376 547.5996)" class="st0" style="font-family:'ProtomoRegular'; font-size:36.9941px;"> NAME</text>
<rect x="1286.1" y="634.8" class="st3" width="331.4" height="35.4"/>
<text transform="matrix(1 0 0 1 1519.6991 654.9102)" class="st0" style="font-family:'ProtomoRegular'; font-size:36.9941px;">EMAIL</text>
<rect x="1286.1" y="746.7" class="st3" width="331.4" height="35.4"/>
<text transform="matrix(1 0 0 1 1428.8798 766.7539)" class="st0" style="font-family:'ProtomoRegular'; font-size:36.9941px;">FEEDBACK</text>
</svg>
