<?xml version="1.0" encoding="utf-8"?>
<!-- Generator: Adobe Illustrator 26.0.0, SVG Export Plug-In . SVG Version: 6.00 Build 0)  -->
<svg version="1.1" id="Layer_1" xmlns="http://www.w3.org/2000/svg" xmlns:xlink="http://www.w3.org/1999/xlink" x="0px" y="0px"
	 viewBox="0 0 1692.87 467.18" style="enable-background:new 0 0 1692.87 467.18;" xml:space="preserve">
<style type="text/css">
	.st0{fill:#952228;}
</style>
<g>
	<g>
		<path class="st0" d="M346.81,2.87c20.69,0,39.88,11.61,52.68,31.83c12.93,20.43,18.25,47.88,14.59,75.32l-35.65,268.1
			c-3.22,24.2-13.06,46.66-27.73,63.17c-14.8,16.69-33.18,25.89-51.77,25.89h-91.57c-8.26,0-16.2-2.39-23.39-6.88
			c-7.43,4.44-15.58,6.88-23.99,6.88H68.4c-20.69,0-39.88-11.61-52.68-31.83C2.79,414.91-2.53,387.47,1.13,360.03l35.65-268.1
			C40,67.73,49.84,45.29,64.51,28.76c14.8-16.69,33.18-25.89,51.77-25.89H346.81z M116.28,55.01c-19.16,0-37.41,20.59-40.79,45.98
			L39.82,369.06c-3.38,25.42,9.42,46.01,28.59,46.01h91.57c9.55,0,18.69-10.31,20.38-23l8.36-62.78c1.69-12.72-4.7-23-14.28-23
			h-26.87c-9.58,0-15.97-10.31-14.28-23l12.83-96.51c1.69-12.7,10.83-23,20.41-23h101.13c9.58,0,15.97,10.31,14.28,23l-12.83,96.51
			c-1.69,12.7-10.83,23-20.41,23h-26.87c-9.58,0-18.69,10.28-20.38,23l-8.36,62.78c-1.69,12.7,4.7,23,14.28,23h91.57
			c19.16,0,37.41-20.59,40.79-46.01l35.65-268.08c3.38-25.39-9.4-45.98-28.56-45.98H116.28z M182.15,215.9l-5.11,38.35
			c7.32,0.44,14.38,2.78,20.8,6.78c7.43-4.41,15.58-6.88,23.99-6.88h11.24l5.09-38.24H182.15z"/>
		<path class="st0" d="M843.71,2.87c16.18,0,31.26,9.19,41.41,25.24c10.2,16.12,14.41,37.6,11.58,58.94l-41.78,314.08
			c-4.99,37.65-30.4,66.05-59.09,66.05h-47.36c-16.15,0-31.26-9.19-41.39-25.24c-10.2-16.12-14.44-37.6-11.61-58.91L717.7,215.9
			H564.03c-16.18,0-31.26-9.22-41.39-25.24c-10.2-16.12-14.44-37.6-11.61-58.94l8.36-62.78c5.01-37.67,30.4-66.08,59.09-66.08
			H843.71z M578.49,55.01c-9.58,0-18.69,10.28-20.38,22.98l-8.36,62.81c-1.69,12.7,4.7,22.98,14.28,22.98H747.2
			c9.58,0,15.99,10.31,14.31,23l-27.31,205.3c-1.69,12.7,4.7,23,14.28,23h47.36c9.58,0,18.72-10.31,20.41-23l41.75-314.08
			c1.69-12.7-4.7-22.98-14.28-22.98H578.49z"/>
	</g>
	<g>
		<path class="st0" d="M1237.21,19.59l-5.35,30.35c-1.09,6.13-6.93,11.11-13.06,11.11h-124.42c-2.23,0-4.39,1.82-4.78,4.08
			c-0.42,2.23,1.09,4.05,3.35,4.05h71.84c6.13,0,10.23,4.99,9.14,11.11l-5.35,30.35c-1.06,6.13-6.93,11.11-13.06,11.11h-64.81
			c-6.13,0-12,4.96-13.06,11.11l-6.8,38.48c-1.09,6.13-6.93,11.11-13.06,11.11h-30.35c-6.13,0-10.23-4.99-9.14-11.11l24.8-140.65
			c2.15-12.28,13.86-22.22,26.15-22.22h158.82C1234.2,8.48,1238.3,13.46,1237.21,19.59z"/>
		<path class="st0" d="M1525.36,30.7l-12.12,68.83c-2.18,12.28-13.89,22.22-26.15,22.22h-30.77v47.67c0,6.8-6.34,13.03-13.24,13.03
			h-31.49c-5.4,0-9.32-3.87-9.32-9.19v-42.35c0-5.3-3.95-9.17-9.32-9.17h-12.12c-6.13,0-11.97,4.96-13.06,11.11l-6.8,38.48
			c-1.06,6.13-6.93,11.11-13.06,11.11h-30.33c-6.15,0-10.26-4.99-9.17-11.11l26.77-151.76c1.06-6.13,6.93-11.11,13.06-11.11h158.82
			C1519.34,8.48,1527.51,18.42,1525.36,30.7z M1463.38,61.05h-78.88c-2.39,0-4.65,2.03-4.86,4.47c-0.18,2.1,1.45,3.66,3.58,3.66
			h78.54c2.13,0,4.28-1.56,4.86-3.66C1467.3,63.08,1465.75,61.05,1463.38,61.05z"/>
		<path class="st0" d="M1682.34,19.59l-26.77,151.76c-1.09,6.13-6.93,11.11-13.06,11.11h-30.35c-6.13,0-10.23-4.99-9.14-11.11
			l26.74-151.76c1.09-6.13,6.93-11.11,13.09-11.11h30.33C1679.3,8.48,1683.4,13.46,1682.34,19.59z"/>
	</g>
	<g>
		<path class="st0" d="M1122.14,304.31l-18.02,102.22c-5.89,33.49-37.86,60.65-71.35,60.65h-61.14c-6.13,0-10.23-4.99-9.14-11.11
			l5.35-30.35c1.06-6.13,6.93-11.09,13.06-11.09h47.02c12.28,0,23.96-9.97,26.15-22.22l6.26-35.54c1.09-6.13-3.01-11.09-9.14-11.09
			h-5.58c-6.13,0-10.23-4.99-9.14-11.11l5.35-30.35c1.06-6.13,6.93-11.11,13.06-11.11H1113
			C1119.13,293.2,1123.23,298.18,1122.14,304.31z"/>
		<path class="st0" d="M1419.14,304.31l-24.8,140.65c-2.18,12.28-13.86,22.22-26.15,22.22h-147.71c-12.28,0-20.46-9.94-18.3-22.22
			l24.8-140.65c1.09-6.13,6.93-11.11,13.09-11.11h30.33c6.13,0,10.23,4.99,9.17,11.11l-17.5,99.21c-1.09,6.13,3.01,11.11,9.14,11.11
			h64.81c6.15,0,12-4.99,13.09-11.11l17.5-99.21c1.06-6.13,6.93-11.11,13.06-11.11h30.33
			C1416.13,293.2,1420.23,298.18,1419.14,304.31z"/>
		<path class="st0" d="M1692.7,304.31l-24.8,140.65c-2.16,12.28-13.86,22.22-26.12,22.22h-55.25c-10.98,0-18.9-8.02-18.64-18.9
			l2.49-98.45l-18.72,106.24c-1.09,6.13-6.93,11.11-13.09,11.11h-30.33c-6.15,0-10.23-4.99-9.17-11.11l24.8-140.65
			c2.18-12.28,13.86-22.22,26.15-22.22h55.22c11.01,0,18.93,8.05,18.64,18.9l-2.49,98.45l18.75-106.24
			c1.09-6.13,6.93-11.11,13.06-11.11h30.35C1689.68,293.2,1693.79,298.18,1692.7,304.31z"/>
	</g>
</g>
</svg>
