<?xml version="1.0" encoding="utf-8"?>
<!-- Generator: Adobe Illustrator 26.0.0, SVG Export Plug-In . SVG Version: 6.00 Build 0)  -->
<svg version="1.1" id="Layer_1" xmlns="http://www.w3.org/2000/svg" xmlns:xlink="http://www.w3.org/1999/xlink" x="0px" y="0px"
	 viewBox="0 0 1920 952.62" style="enable-background:new 0 0 1920 952.62;" xml:space="preserve">
<style type="text/css">
	.st0{fill:#231F20;}
	.st1{fill:none;}
	.st2{enable-background:new    ;}
	.st3{fill:#FFFFFF;}
	.st4{fill:#EEEB6D;}
	.st5{fill:#39FF00;}
</style>
<g>
	<polygon class="st0" points="914.77,346.65 898.6,346.65 898.6,221.04 1005.24,221.06 1005.24,149.1 898.6,149.1 898.6,0 914.77,0 
		914.77,132.93 1021.4,132.93 1021.4,237.24 914.77,237.22 	"/>
</g>
<path class="st0" d="M1387.89,343.47H532.11c-168.24,0-304.62,132.65-304.62,296.27v16.62c0,163.63,136.39,296.27,304.62,296.27
	h855.78c168.24,0,304.62-132.65,304.62-296.27v-16.62C1692.51,476.11,1556.12,343.47,1387.89,343.47z"/>
<rect x="516.28" y="878.65" class="st1" width="853.79" height="62.52"/>
<g class="st2">
	<path class="st3" d="M680.86,871.01l-5.26,29.81c-0.46,2.6-2.94,4.71-5.54,4.71h-12.57c-1.25,0-2.1-0.97-1.96-2.21l1.4-12.08
		l-2.86,12.08c-0.29,1.24-1.5,2.21-2.74,2.21h-12.57c-2.6,0-4.34-2.11-3.88-4.71l5.26-29.81c0.23-1.3,1.47-2.35,2.77-2.35h6.43
		c1.3,0,2.17,1.05,1.94,2.35l-3.85,21.82l7.26-22.17c0.38-1.15,1.52-2,2.68-2h7.09c1.16,0,2,0.85,1.97,2l-0.56,22.17l3.85-21.82
		c0.23-1.3,1.47-2.35,2.77-2.35h6.43C680.22,868.65,681.09,869.71,680.86,871.01z"/>
	<path class="st3" d="M725.16,873.36l-5.26,29.81c-0.23,1.3-1.47,2.35-2.77,2.35h-6.43c-1.3,0-2.17-1.05-1.94-2.35l1.44-8.16
		c0.23-1.3-0.64-2.35-1.94-2.35h-13.73c-1.3,0-2.54,1.05-2.77,2.35l-1.44,8.16c-0.23,1.3-1.47,2.35-2.77,2.35h-6.43
		c-1.3,0-2.17-1.05-1.94-2.35l5.26-29.81c0.46-2.6,2.94-4.71,5.54-4.71h31.3C723.89,868.65,725.62,870.76,725.16,873.36z
		 M712.02,879.79H695.3c-0.48,0-0.93,0.39-1.02,0.86c-0.08,0.48,0.23,0.86,0.71,0.86h16.72c0.48,0,0.93-0.39,1.02-0.86
		C712.82,880.18,712.51,879.79,712.02,879.79z"/>
	<path class="st3" d="M767.58,871.01l-1.13,6.43c-0.23,1.3-1.47,2.35-2.77,2.35h-7.14c-1.3,0-2.54,1.05-2.77,2.35l-3.71,21.02
		c-0.23,1.3-1.47,2.35-2.77,2.35h-6.43c-1.3,0-2.17-1.05-1.94-2.35l3.71-21.02c0.23-1.3-0.64-2.35-1.94-2.35h-12.32
		c-1.3,0-2.17-1.05-1.94-2.35l1.13-6.43c0.23-1.3,1.47-2.35,2.77-2.35h35.31C766.95,868.65,767.82,869.71,767.58,871.01z"/>
	<path class="st3" d="M805.78,896.74l-1.13,6.43c-0.23,1.3-1.47,2.35-2.77,2.35h-33.66c-2.6,0-4.34-2.11-3.88-4.71l1.13-6.43
		l2.57-14.59l1.13-6.43c0.46-2.6,2.94-4.71,5.54-4.71h22.52c1.3,0,2.17,1.05,1.94,2.35l-1.13,6.43c-0.23,1.3-1.47,2.35-2.77,2.35
		h-13.73c-1.3,0-2.54,1.05-2.77,2.35l-1.74,9.88c-0.23,1.3,0.64,2.35,1.94,2.35h24.87C805.14,894.38,806.01,895.44,805.78,896.74z"
		/>
	<path class="st3" d="M853.14,871.01l-5.67,32.16c-0.23,1.3-1.47,2.35-2.77,2.35h-6.43c-1.3,0-2.17-1.05-1.94-2.35l1.44-8.16
		c0.23-1.3-0.64-2.35-1.94-2.35H822.1c-1.3,0-2.54,1.05-2.77,2.35l-1.44,8.16c-0.23,1.3-1.47,2.35-2.77,2.35h-6.43
		c-1.3,0-2.17-1.05-1.94-2.35l5.67-32.16c0.23-1.3,1.47-2.35,2.77-2.35h6.43c1.3,0,2.17,1.05,1.94,2.35l-1.44,8.16
		c-0.23,1.3,0.64,2.35,1.94,2.35h13.73c1.3,0,2.54-1.05,2.77-2.35l1.44-8.16c0.23-1.3,1.47-2.35,2.77-2.35h6.43
		C852.49,868.65,853.36,869.71,853.14,871.01z"/>
	<path class="st3" d="M915.32,873.36l-4.84,27.45c-0.46,2.6-2.94,4.71-5.54,4.71h-31.3c-2.6,0-4.34-2.11-3.88-4.71l4.84-27.45
		c0.46-2.6,2.94-4.71,5.54-4.71h31.3C914.04,868.65,915.78,870.76,915.32,873.36z M900.7,879.79h-13.73c-1.3,0-2.54,1.05-2.77,2.35
		l-1.74,9.88c-0.23,1.3,0.64,2.35,1.94,2.35h13.73c1.3,0,2.54-1.05,2.77-2.35l1.74-9.88C902.86,880.85,901.99,879.79,900.7,879.79z"
		/>
	<path class="st3" d="M960.36,871.01l-5.26,29.81c-0.46,2.6-2.94,4.71-5.54,4.71h-31.3c-2.6,0-4.34-2.11-3.88-4.71l5.26-29.81
		c0.23-1.3,1.47-2.35,2.77-2.35h6.43c1.3,0,2.17,1.05,1.94,2.35l-3.71,21.02c-0.23,1.3,0.64,2.35,1.94,2.35h13.73
		c1.3,0,2.54-1.05,2.77-2.35l3.71-21.02c0.23-1.3,1.47-2.35,2.77-2.35h6.43C959.72,868.65,960.59,869.71,960.36,871.01z"/>
	<path class="st3" d="M1004.73,873.36l-2.57,14.59c-0.46,2.6-2.94,4.71-5.54,4.71h-6.52v10.1c0,1.44-1.34,2.76-2.81,2.76h-6.68
		c-1.14,0-1.98-0.82-1.98-1.95v-8.97c0-1.12-0.83-1.95-1.98-1.95h-2.57c-1.3,0-2.54,1.05-2.77,2.35l-1.44,8.16
		c-0.23,1.3-1.47,2.35-2.77,2.35h-6.43c-1.3,0-2.17-1.05-1.94-2.35L964.4,871c0.23-1.3,1.47-2.35,2.77-2.35h33.66
		C1003.45,868.65,1005.2,870.76,1004.73,873.36z M991.59,879.79h-16.72c-0.5,0-0.98,0.43-1.03,0.95c-0.04,0.45,0.31,0.78,0.76,0.78
		h16.64c0.45,0,0.91-0.33,1.03-0.78C992.42,880.23,992.1,879.79,991.59,879.79z"/>
	<path class="st3" d="M1064.06,871.01l-1.13,6.43c-0.23,1.3-1.47,2.35-2.77,2.35h-7.14c-1.3,0-2.54,1.05-2.77,2.35l-3.71,21.02
		c-0.23,1.3-1.47,2.35-2.77,2.35h-6.43c-1.3,0-2.17-1.05-1.94-2.35l3.71-21.02c0.23-1.3-0.64-2.35-1.94-2.35h-12.32
		c-1.3,0-2.17-1.05-1.94-2.35l1.13-6.43c0.23-1.3,1.47-2.35,2.77-2.35h35.31C1063.42,868.65,1064.29,869.71,1064.06,871.01z"/>
	<path class="st3" d="M1106.47,873.36l-2.57,14.59c-0.46,2.6-2.94,4.71-5.54,4.71h-6.52v10.1c0,1.44-1.34,2.76-2.81,2.76h-6.68
		c-1.14,0-1.98-0.82-1.98-1.95v-8.97c0-1.12-0.83-1.95-1.98-1.95h-2.57c-1.3,0-2.54,1.05-2.77,2.35l-1.44,8.16
		c-0.23,1.3-1.47,2.35-2.77,2.35h-6.43c-1.3,0-2.17-1.05-1.94-2.35l5.67-32.16c0.23-1.3,1.47-2.35,2.77-2.35h33.66
		C1105.2,868.65,1106.93,870.76,1106.47,873.36z M1093.34,879.79h-16.72c-0.5,0-0.99,0.43-1.03,0.95c-0.04,0.45,0.31,0.78,0.76,0.78
		h16.64c0.45,0,0.91-0.33,1.03-0.78C1094.17,880.23,1093.84,879.79,1093.34,879.79z"/>
	<path class="st3" d="M1150.22,873.36l-5.26,29.81c-0.23,1.3-1.47,2.35-2.77,2.35h-6.43c-1.3,0-2.17-1.05-1.94-2.35l1.44-8.16
		c0.23-1.3-0.64-2.35-1.94-2.35h-13.73c-1.3,0-2.54,1.05-2.77,2.35l-1.44,8.16c-0.23,1.3-1.47,2.35-2.77,2.35h-6.43
		c-1.3,0-2.17-1.05-1.94-2.35l5.26-29.81c0.46-2.6,2.94-4.71,5.54-4.71h31.3C1148.94,868.65,1150.67,870.76,1150.22,873.36z
		 M1137.08,879.79h-16.72c-0.48,0-0.93,0.39-1.02,0.86c-0.08,0.48,0.23,0.86,0.71,0.86h16.72c0.48,0,0.93-0.39,1.02-0.86
		C1137.89,880.18,1137.56,879.79,1137.08,879.79z"/>
	<path class="st3" d="M1165.81,871.01l-5.67,32.16c-0.23,1.3-1.47,2.35-2.77,2.35h-6.43c-1.3,0-2.17-1.05-1.94-2.35l5.67-32.16
		c0.23-1.3,1.47-2.35,2.77-2.35h6.43C1165.17,868.65,1166.04,869.71,1165.81,871.01z"/>
	<path class="st3" d="M1193.53,896.74l-1.13,6.43c-0.23,1.3-1.47,2.35-2.77,2.35h-23.46c-1.3,0-2.17-1.05-1.94-2.35l5.67-32.16
		c0.23-1.3,1.47-2.35,2.77-2.35h6.43c1.3,0,2.17,1.05,1.94,2.35l-3.71,21.02c-0.23,1.3,0.64,2.35,1.94,2.35h12.32
		C1192.89,894.38,1193.76,895.44,1193.53,896.74z"/>
	<path class="st3" d="M1240.81,871.01l-1.13,6.43c-0.23,1.3-1.47,2.35-2.77,2.35h-26.36c-0.48,0-0.93,0.39-1.02,0.86
		c-0.08,0.48,0.23,0.86,0.71,0.86h26.36c1.3,0,2.17,1.05,1.94,2.35l-1.13,6.43c-0.23,1.3-1.47,2.35-2.77,2.35h-26.36
		c-0.48,0-0.93,0.39-1.02,0.86c-0.08,0.48,0.23,0.86,0.71,0.86h26.36c1.3,0,2.17,1.05,1.94,2.35l-1.13,6.43
		c-0.23,1.3-1.47,2.35-2.77,2.35h-33.66c-2.6,0-4.34-2.11-3.88-4.71l4.84-27.45c0.46-2.6,2.94-4.71,5.54-4.71h33.66
		C1240.17,868.65,1241.04,869.71,1240.81,871.01z"/>
	<path class="st3" d="M1285.11,873.36l-2.57,14.59c-0.46,2.6-2.94,4.71-5.54,4.71h-6.52v10.1c0,1.44-1.34,2.76-2.81,2.76h-6.68
		c-1.14,0-1.98-0.82-1.98-1.95v-8.97c0-1.12-0.83-1.95-1.98-1.95h-2.57c-1.3,0-2.54,1.05-2.77,2.35l-1.44,8.16
		c-0.23,1.3-1.47,2.35-2.77,2.35h-6.43c-1.3,0-2.17-1.05-1.94-2.35l5.67-32.16c0.23-1.3,1.47-2.35,2.77-2.35h33.66
		C1283.83,868.65,1285.57,870.76,1285.11,873.36z M1271.98,879.79h-16.72c-0.5,0-0.99,0.43-1.03,0.95
		c-0.04,0.45,0.31,0.78,0.76,0.78h16.64c0.45,0,0.91-0.33,1.03-0.78C1272.81,880.23,1272.48,879.79,1271.98,879.79z"/>
</g>
<polygon class="st4" points="373.68,524.99 373.62,584.12 403.78,607.81 436.14,584.12 436.14,524.57 "/>
<polygon class="st4" points="291.13,667.51 350.17,667.88 373.97,639.1 350.48,607.95 291.02,607.64 "/>
<polygon class="st4" points="435.11,750.18 435.67,691.71 405.83,668.03 373.4,691.18 372.9,750.07 "/>
<polygon class="st4" points="516.92,608.5 458.17,608.2 434.51,636.85 457.92,667.79 517.1,668.03 "/>
<ellipse class="st4" cx="1504.72" cy="563.15" rx="41.21" ry="40.91"/>
<ellipse class="st4" cx="1433.63" cy="633.83" rx="41.21" ry="40.91"/>
<ellipse class="st4" cx="1578.25" cy="632.96" rx="41.21" ry="40.91"/>
<ellipse class="st4" cx="1508.18" cy="707.25" rx="41.21" ry="40.91"/>
<rect x="578.82" y="381.7" class="st3" width="762.35" height="444.44"/>
<rect x="609.11" y="403.59" class="st5" width="701.77" height="400.65"/>
</svg>
